<svg width="493" height="347" viewBox="0 0 493 347" fill="none" xmlns="http://www.w3.org/2000/svg">
<path d="M475.487 332.716C472.038 334.372 468.917 335.868 466.288 337.126C465.923 337.267 465.557 337.405 465.191 337.541C451.417 342.626 435.346 344.236 420.761 344.802C410.491 345.201 400.203 344.425 390.038 342.984L387.162 342.409C387.162 333.714 387.162 325.019 387.162 316.325C411.731 310.278 436.072 302.696 461.55 301.868C463.099 301.818 463.863 299.939 461.876 300.004C457.155 300.157 452.473 300.545 447.819 301.106C446.377 282.896 443.048 264.877 438.132 247.296L437.717 245.221L437.129 243.799C434.965 236.407 432.532 229.093 429.829 221.882C429.353 220.613 426.473 221.434 426.932 222.658C427.952 225.379 428.927 228.116 429.871 230.864C423.25 231.809 416.705 233.113 410.19 234.566C408.634 218.777 412.994 203.979 420.48 190.028C420.641 189.728 419.698 189.69 418.842 189.877L419.342 189.502C420.147 189.616 420.94 189.69 421.717 189.721C421.984 189.732 422.241 189.738 422.506 189.747C427.678 190.691 432.849 190.988 438.508 190.398C440.391 190.202 442.392 189.873 444.431 189.417C444.673 189.463 444.988 189.457 445.386 189.351C446.188 189.138 446.972 189.143 447.736 189.295C448.086 189.391 448.462 189.503 448.856 189.627C452.035 190.906 454.731 194.661 456.38 197.048C460.637 203.207 463.515 210.379 466.172 217.334C472.321 233.43 476.679 250.229 480.682 266.966C482.111 272.939 483.451 278.933 484.771 284.93C486.6 293.242 489.097 301.526 489.454 310.071C489.896 320.673 483.658 327.819 475.487 332.716ZM457.717 341.22C457.717 341.22 457.74 341.209 457.773 341.193C457.723 341.207 457.672 341.218 457.622 341.232L457.717 341.22ZM254.924 207.644C254.924 205.58 254.924 203.515 254.924 201.45C252.484 197.401 250.076 193.332 247.713 189.235V189.814H228.905C227.057 190.199 225.193 190.493 223.34 190.726C223.555 190.828 223.73 190.986 223.828 191.214C224.546 192.882 225.2 194.574 225.825 196.277H247.713V198.277H226.548C227.607 201.339 228.541 204.447 229.397 207.585C237.744 207.585 246.091 207.585 254.439 207.585C254.625 207.584 254.782 207.609 254.924 207.644ZM223.231 198.276C223.811 199.853 224.448 201.604 225.122 203.481C224.579 201.732 223.997 199.999 223.381 198.276H223.231ZM243.767 182.323C243.754 182.33 243.742 182.337 243.729 182.344C243.746 182.344 243.764 182.344 243.78 182.345C243.776 182.338 243.771 182.331 243.767 182.323ZM340.217 194.72C339.127 195.047 337.418 196.088 335.413 197.515C337.302 196.358 339.244 195.312 341.251 194.436C340.894 194.527 340.547 194.621 340.217 194.72ZM221.362 190.953C221.186 190.972 221.009 190.992 220.834 191.01C220.721 191.021 220.62 191.026 220.525 191.026C220.899 192.008 221.593 193.846 222.494 196.276H222.651C222.107 194.837 221.542 193.405 220.932 191.989C220.754 191.577 220.976 191.21 221.362 190.953ZM244.217 183.11C244.209 183.117 244.206 183.122 244.197 183.129C241.698 185.164 238.876 186.674 235.887 187.814H246.902C246.003 186.248 245.105 184.682 244.217 183.11ZM290.517 234.076L283.643 239.931C283.888 240.273 284.126 240.619 284.372 240.96C285.261 242.191 282.503 243.328 281.722 242.244C273.281 230.544 265.358 218.509 257.822 206.229C257.822 206.88 257.822 207.531 257.822 208.182C257.822 209.02 256.11 209.527 255.319 209.331C255.059 209.586 254.677 209.767 254.198 209.767C246.125 209.767 238.051 209.767 229.978 209.767C233.183 222.044 235.371 234.693 239.313 246.677C239.75 248.005 240.213 249.348 240.701 250.698C253.542 250.698 266.383 250.698 279.223 250.698C281.174 250.698 279.027 252.177 278.052 252.177C265.782 252.177 253.513 252.177 241.244 252.177C243.125 257.195 245.387 262.244 248.187 266.816H264.713V268.816H249.475C251.04 271.149 252.756 273.331 254.656 275.279H264.713V277.279H256.777C262.122 281.945 268.758 284.835 277.109 284.564C278.048 284.481 278.974 284.356 279.889 284.191C279.889 273.379 279.889 262.567 279.889 251.755C279.889 250.666 282.786 250.131 282.786 250.979C282.786 261.831 282.786 272.682 282.786 283.534C285.594 282.768 288.297 281.658 290.919 280.303L301.789 273.298C307.881 268.744 313.716 263.646 319.697 259.635L320.655 258.778C320.208 247.037 320.81 235.204 324.995 224.107C325.448 222.906 328.355 222.871 327.765 224.436C322.515 238.358 323.015 253.696 324.159 268.296C324.729 275.57 325.918 283.25 326.008 290.78C327.554 284.579 329.092 278.399 330.419 272.236C331.99 264.938 333.428 257.614 334.921 250.313C334.93 250.151 334.931 249.99 334.942 249.827C334.949 249.732 334.998 249.64 335.076 249.552C338.904 230.884 343.142 212.369 351.001 194.799C351.294 194.143 352.43 193.848 353.177 194.017C353.362 193.57 353.503 193.233 353.594 193.014C338.961 192.919 328.331 205.004 317.862 213.616C309.062 220.854 299.512 227.103 290.517 234.076ZM344.865 295.699C344.562 288.198 343.419 281.537 340.66 274.484C338.796 269.719 336.928 265.046 335.834 260.201C334.841 265.063 333.827 269.925 332.73 274.774C327.732 296.867 320.435 319.391 320.185 342.22H343.717C343.717 342.22 343.766 341.886 343.852 341.289C343.483 341.251 343.232 341.107 343.275 340.823C345.498 326.058 345.466 310.591 344.865 295.699ZM322.541 305.04C322.727 304.235 322.91 303.43 323.101 302.626C323.006 302.617 322.915 302.602 322.83 302.578C322.747 303.367 322.651 304.185 322.541 305.04Z" fill="#8DFF99"/>
<path d="M341.147 131.696C339.287 135.284 333.435 142.527 339.896 144.675C340.839 144.988 338.232 146.093 337.532 145.861C330.438 143.503 336.148 136.287 338.281 132.174C338.679 131.404 341.416 131.176 341.147 131.696ZM358.162 148.546C358.362 151.718 357.567 155.614 353.689 155.806C350.35 155.972 348.526 152.716 347.739 149.873C347.55 149.838 347.362 149.81 347.172 149.77C346.549 149.641 346.43 149.067 346.871 148.645C347.381 148.156 348.198 147.963 348.884 148.093C349.491 147.941 350.131 147.985 350.39 148.331C352.428 148.603 354.443 148.564 356.499 148.138C356.853 148.066 358.121 147.884 358.162 148.546ZM355.287 150.011C353.845 150.218 352.416 150.3 350.983 150.242C351.547 151.872 352.494 153.645 354.049 154.004C354.354 154.074 354.105 154.197 354.337 153.941C354.596 153.654 354.809 153.278 354.922 152.909C355.216 151.954 355.304 150.993 355.287 150.011ZM355.514 132.155C355.852 130.569 356.438 129.055 356.847 127.488C357.035 126.769 355.997 126.508 355.51 126.546C354.797 126.601 354.1 126.995 353.912 127.713C353.502 129.28 352.916 130.792 352.579 132.38C352.276 133.804 355.241 133.438 355.514 132.155ZM334.844 128.719C335.442 128.642 336.259 128.369 336.494 127.748C337.097 126.156 337.161 124.562 337.162 122.879C337.162 122.005 334.265 122.547 334.265 123.655C334.264 125.204 334.153 126.66 333.6 128.12C333.363 128.745 334.549 128.757 334.844 128.719ZM359.228 116.339C357.322 115.588 355.369 115.009 353.307 114.962C352.606 114.946 351.844 115.107 351.258 115.511C350.815 115.817 350.868 116.227 351.453 116.24C353.349 116.284 355.114 116.841 356.865 117.531C357.455 117.763 358.371 117.45 358.897 117.185C359.22 117.021 359.831 116.577 359.228 116.339ZM339.81 113.717C338.544 114.14 337.299 114.594 336.1 115.186C335.657 115.404 334.924 115.987 335.379 116.544C335.813 117.074 336.791 116.947 337.326 116.683C338.301 116.203 339.27 115.822 340.283 115.484C340.779 115.318 341.679 114.901 341.495 114.213C341.323 113.566 340.306 113.551 339.81 113.717ZM491.057 318.778C487.332 328.574 477.192 334.524 467.779 338C464.51 339.207 461.167 340.264 457.773 341.193C457.723 341.207 457.672 341.218 457.622 341.232C435.075 347.379 410.143 347.611 387.475 344.322C385.887 344.092 388.476 342.764 389.286 342.882C389.536 342.919 389.788 342.949 390.039 342.985C400.204 344.426 410.492 345.202 420.762 344.803C435.347 344.237 451.418 342.627 465.192 337.542C465.558 337.407 465.923 337.269 466.289 337.127C469.457 335.903 472.593 334.451 475.488 332.717C483.659 327.82 489.898 320.674 489.455 310.071C489.098 301.526 486.601 293.241 484.772 284.93C483.452 278.932 482.112 272.939 480.683 266.966C476.68 250.229 472.323 233.43 466.173 217.334C463.516 210.379 460.638 203.207 456.381 197.048C454.732 194.661 452.036 190.906 448.857 189.627C448.49 189.479 448.116 189.371 447.737 189.295C446.973 189.143 446.189 189.138 445.387 189.351C444.989 189.457 444.674 189.463 444.432 189.417C442.393 189.873 440.392 190.202 438.509 190.398C432.849 190.988 427.679 190.69 422.507 189.747C422.243 189.738 421.985 189.732 421.718 189.721C420.941 189.69 420.149 189.616 419.343 189.502C415.79 188.999 411.983 187.701 408.128 185.784C407.139 185.443 406.158 185.092 405.189 184.723C400.697 190.808 398.55 198.221 394.069 204.324C393.538 205.047 392.113 205.48 391.371 204.849C387.336 201.417 382.329 196.515 380.114 191.247C379.704 192.562 379.344 193.862 379.017 195.1C377.457 200.993 376.447 207.026 374.83 212.902C374.892 213.118 374.818 213.326 374.662 213.511C374.606 213.707 374.557 213.905 374.499 214.101C374.493 214.123 374.478 214.143 374.47 214.164C374.481 214.372 374.498 214.578 374.504 214.787C374.538 215.885 371.631 216.454 371.589 215.085C371.563 214.25 371.494 213.423 371.401 212.602C370.795 210.958 370.601 208.771 370.242 207.357C369.762 205.463 369.281 203.57 368.797 201.677C368.555 200.904 368.312 200.131 368.069 199.357C367.43 199.597 366.687 199.713 366.356 199.461C364.727 198.221 361.704 194.135 359.813 197.08C358.595 198.977 357.707 201.065 356.374 202.887C356.104 203.256 353.633 204.152 353.598 203.326C353.462 200.12 353.627 196.374 354.424 192.886C354.197 192.966 353.976 193.014 353.795 193.012C353.728 193.011 353.662 193.015 353.595 193.014C338.962 192.919 328.332 205.004 317.863 213.616C309.062 220.857 299.511 227.106 290.517 234.079C288.143 235.919 285.799 237.798 283.529 239.773C283.568 239.826 283.605 239.881 283.643 239.934C283.888 240.276 284.126 240.622 284.372 240.963C285.261 242.194 282.503 243.331 281.722 242.247C273.281 230.547 265.358 218.512 257.822 206.232C257.822 206.883 257.822 207.534 257.822 208.185C257.822 209.023 256.11 209.53 255.319 209.334C255.059 209.589 254.677 209.77 254.198 209.77C246.125 209.77 238.051 209.77 229.978 209.77C233.183 222.047 235.371 234.696 239.313 246.68C239.75 248.008 240.213 249.351 240.701 250.701C253.542 250.701 266.383 250.701 279.223 250.701C281.174 250.701 279.027 252.18 278.052 252.18C265.782 252.18 253.513 252.18 241.244 252.18C243.125 257.198 245.387 262.247 248.187 266.819H264.713V268.819H249.475C251.04 271.152 252.756 273.334 254.656 275.282H264.713V277.282H256.777C262.122 281.948 268.758 284.838 277.109 284.567C278.048 284.484 278.974 284.359 279.889 284.194C279.889 273.382 279.889 262.57 279.889 251.758C279.889 250.669 282.786 250.134 282.786 250.982C282.786 261.834 282.786 272.685 282.786 283.537C285.594 282.771 288.297 281.661 290.919 280.306C294.68 278.362 298.278 275.925 301.789 273.301C307.881 268.747 313.716 263.649 319.697 259.638C319.771 259.589 319.844 259.536 319.918 259.488C320.064 259.391 320.348 259.306 320.674 259.244C320.668 259.09 320.661 258.935 320.655 258.781C320.208 247.04 320.81 235.207 324.995 224.11C325.448 222.909 328.355 222.874 327.765 224.439C322.515 238.361 323.015 253.699 324.159 268.299C324.729 275.573 325.918 283.253 326.008 290.783C327.554 284.582 329.092 278.402 330.419 272.239C331.99 264.941 333.428 257.617 334.921 250.316C334.93 250.154 334.931 249.993 334.942 249.83C334.949 249.735 334.998 249.643 335.076 249.555C338.904 230.887 343.142 212.372 351.001 194.802C351.294 194.146 352.43 193.851 353.177 194.02C353.695 194.137 354.029 194.476 353.758 195.082C345.769 212.944 341.633 231.75 337.769 250.691C337.517 260.562 342.211 268.976 345.194 278.189C347.371 284.912 347.723 291.585 347.873 298.599C348.167 312.443 348.217 326.659 346.151 340.386C346.067 340.949 344.669 341.381 343.852 341.297C343.483 341.259 343.232 341.115 343.275 340.831C345.498 326.066 345.465 310.6 344.864 295.707C344.561 288.206 343.418 281.545 340.659 274.492C338.795 269.727 336.927 265.054 335.833 260.209C334.84 265.071 333.826 269.933 332.729 274.782C327.731 296.875 320.434 319.399 320.184 342.228C320.183 342.314 320.177 342.399 320.177 342.485C320.166 343.719 317.236 344.199 317.248 342.733C317.358 330.045 319.662 317.497 322.54 305.048C322.726 304.243 322.909 303.438 323.1 302.634C323.005 302.625 322.914 302.61 322.829 302.586C322.424 302.475 322.154 302.199 322.245 301.72C324.449 290.067 321.794 277.523 321.025 265.829C320.913 264.127 320.814 262.419 320.733 260.708C308.494 269.169 296.941 280.902 282.785 284.784C282.785 286.981 282.785 289.178 282.785 291.375C282.785 292.441 280.019 292.972 279.899 292.201C279.689 292.632 279.201 292.997 278.515 292.997C252.962 292.997 227.408 292.997 201.854 292.997C201.033 292.997 200.652 292.615 200.604 292.171C199.749 292.617 198.366 292.695 198.366 292.152C198.366 278.689 198.366 265.226 198.366 251.762C198.366 250.714 201.263 250.199 201.263 250.986C201.263 251.045 201.263 251.105 201.263 251.164C201.678 250.909 202.199 250.706 202.56 250.706C214.218 250.706 225.876 250.706 237.534 250.706C232.971 237.423 230.605 223.361 226.936 209.775C216.581 209.775 206.226 209.775 195.872 209.775C195.195 209.775 194.82 209.514 194.681 209.174C193.865 209.439 192.901 209.421 192.901 208.966C192.901 198.99 192.901 189.015 192.901 179.039C192.901 178.038 195.541 177.526 195.776 178.169C196.063 178.046 196.353 177.964 196.579 177.964C201.39 177.964 206.201 177.964 211.012 177.964C210.47 177.01 209.948 176.047 209.442 175.075C205.379 172.727 201.778 168.714 200.718 164.66L126.635 166.585L125.71 177.691L123.717 177.525L124.792 164.631L173.214 163.374V152.791C162.064 153.148 150.89 150.382 140.542 143.829C129.579 136.885 120.085 126.604 114.692 114.609H65.832C65.832 121.777 65.832 128.946 65.832 136.114C65.832 136.929 64.21 137.433 63.394 137.281C63.135 137.569 62.727 137.778 62.208 137.778C42.7671 137.778 23.3251 137.778 3.88409 137.778C3.16109 137.778 2.77809 137.482 2.66409 137.108C1.85409 137.363 0.913086 137.339 0.913086 136.891C0.913086 119.442 0.913086 101.993 0.913086 84.544C0.913086 83.525 3.64509 83.013 3.79609 83.709C4.08009 83.589 4.36608 83.508 4.59008 83.508C24.0311 83.508 43.4731 83.508 62.914 83.508C63.338 83.508 63.56 83.58 63.651 83.69C64.509 83.255 65.832 83.195 65.832 83.768C65.832 93.382 65.832 102.996 65.832 112.609H113.839C111.62 107.13 110.255 101.326 109.997 95.336C109.729 89.121 110.617 83.279 112.428 77.838L79.589 49.282C70.353 49.282 61.117 49.282 51.881 49.282C51.171 49.282 50.79 48.995 50.668 48.631C49.856 48.889 48.9091 48.867 48.9091 48.417C48.9091 32.961 48.9091 17.505 48.9091 2.04903C48.9091 1.03503 51.615 0.524026 51.79 1.20403C52.075 1.08303 52.362 1.00202 52.587 1.00202C72.028 1.00202 91.47 1.00202 110.911 1.00202C111.345 1.00202 111.568 1.07803 111.654 1.19103C112.512 0.759025 113.829 0.700026 113.829 1.27203C113.829 16.728 113.829 32.184 113.829 47.64C113.829 48.461 112.183 48.966 111.372 48.802C111.112 49.081 110.712 49.282 110.205 49.282C101.016 49.282 91.826 49.282 82.637 49.282L113.153 75.818C117.99 63.152 127.883 52.777 139.862 45.134C140.19 44.925 141.363 44.736 141.992 44.785C164.306 35.618 190.928 32.951 211.962 46.845C219.611 51.898 225.94 58.747 230.37 66.61H257.399C257.399 57.089 257.399 47.568 257.399 38.047C257.399 37.033 260.105 36.522 260.28 37.202C260.565 37.081 260.852 37 261.077 37C280.518 37 299.96 37 319.401 37C319.835 37 320.058 37.076 320.144 37.189C321.002 36.757 322.319 36.698 322.319 37.27C322.319 52.726 322.319 68.182 322.319 83.638C322.319 84.459 320.673 84.964 319.862 84.8C319.602 85.079 319.202 85.28 318.695 85.28C299.254 85.28 279.812 85.28 260.371 85.28C259.661 85.28 259.28 84.993 259.158 84.629C258.346 84.887 257.399 84.865 257.399 84.415C257.399 79.146 257.399 73.878 257.399 68.61H231.449C236.502 78.487 238.602 89.803 236.659 101.11C234.858 111.593 229.953 120.978 223.106 128.787C224.496 130.389 225.671 131.914 226.494 132.908C229.602 136.662 232.532 140.554 235.484 144.43C237.056 146.493 238.681 149.338 240.85 150.847C240.908 150.887 240.949 150.929 240.99 150.97C243.724 150.729 246.368 151.22 248.587 152.781C255.753 157.819 251.792 170.681 247.79 177.967C250.161 177.967 252.532 177.967 254.903 177.967C255.363 177.967 255.59 178.051 255.663 178.177C256.521 177.752 257.821 177.698 257.821 178.265C257.821 185.705 257.821 193.146 257.821 200.586C259.012 202.559 260.212 204.526 261.422 206.486C262.529 208.278 263.635 210.071 264.759 211.853C270.434 220.847 276.347 229.689 282.523 238.362C295.161 227.595 309.276 218.748 321.863 207.863C326.121 204.181 330.59 200.477 335.412 197.525C337.301 196.368 339.243 195.322 341.25 194.446C345.449 192.614 349.93 191.505 354.769 191.542C356.084 186.915 358.652 182.962 363.312 181.684C363.091 180.983 362.876 180.28 362.644 179.583C362.104 177.962 361.584 176.292 360.824 174.757C359.184 171.447 354.409 172.7 351.433 172.594C339.662 172.175 330.805 160.873 328.905 149.953C328.392 150.026 327.904 149.923 327.712 149.556C319.666 134.163 320.497 110.758 331.218 96.723C336.923 89.256 344.78 83.377 354.197 81.785C356.982 81.314 359.963 80.97 362.972 80.889C363.391 80.835 363.808 80.782 364.216 80.731C365.003 80.632 365.928 80.732 366.903 80.949C370.74 81.173 374.504 81.92 377.844 83.496C378.114 83.623 378.222 83.782 378.221 83.949C389.631 80.285 400.761 82.553 408.257 93.467C416.703 105.763 419.878 121.027 422.805 135.466C425.191 137.564 427.217 137.232 427.217 137.232C427.217 137.232 428.836 137.232 430.993 137.315C432.458 137.082 433.923 136.844 435.436 136.837C440.655 136.816 446.02 138.841 450.389 141.647C457.705 146.346 464.811 153.626 467.754 161.972C472.553 175.582 461.512 184.043 449.621 187.99C456.03 189.439 460.398 197.504 463.121 202.889C476.462 229.268 481.853 259.328 488.495 287.892C490.712 297.412 494.738 309.096 491.057 318.778ZM260.296 66.601H260.713V68.601H260.296C260.296 73.44 260.296 78.279 260.296 83.119C260.396 83.101 260.501 83.091 260.611 83.091C280.052 83.091 299.494 83.091 318.935 83.091C319.121 83.091 319.278 83.116 319.42 83.151C319.42 68.125 319.42 53.099 319.42 38.073C319.024 38.298 318.56 38.47 318.229 38.47C298.918 38.47 279.606 38.47 260.295 38.47C260.296 47.847 260.296 57.224 260.296 66.601ZM52.123 47.092C61.093 47.092 70.063 47.092 79.033 47.092L79.505 46.55L80.129 47.092C90.235 47.092 100.341 47.092 110.447 47.092C110.633 47.092 110.79 47.117 110.932 47.152C110.932 32.126 110.932 17.1 110.932 2.07402C110.536 2.29902 110.072 2.47102 109.741 2.47102C90.43 2.47102 71.118 2.47102 51.807 2.47102C51.807 17.354 51.807 32.237 51.807 47.119C51.907 47.103 52.012 47.092 52.123 47.092ZM62.449 135.588C62.635 135.588 62.792 135.613 62.934 135.648C62.934 118.626 62.934 101.603 62.934 84.581C62.539 84.806 62.074 84.978 61.743 84.978C42.4321 84.978 23.1201 84.978 3.80909 84.978C3.80909 101.857 3.80909 118.737 3.80909 135.616C3.90909 135.598 4.01408 135.588 4.12408 135.588C23.5661 135.588 43.0081 135.588 62.449 135.588ZM246.932 179.435C246.75 179.73 246.57 180.017 246.392 180.283C246.311 180.404 246.164 180.512 245.985 180.606C246.145 180.685 246.281 180.798 246.372 180.96C249.17 185.923 252.021 190.854 254.924 195.752C254.924 190.181 254.924 184.609 254.924 179.038C254.528 179.263 254.064 179.435 253.733 179.435C251.466 179.435 249.199 179.435 246.932 179.435ZM243.703 180.253C243.875 179.996 244.048 179.715 244.221 179.435C234.559 179.435 224.897 179.435 215.235 179.435C216.973 182.309 218.853 185.098 220.824 187.814H231.402C235.206 186.793 238.829 185.24 241.898 182.741C242.224 182.476 243.084 182.318 243.73 182.345C243.747 182.345 243.765 182.345 243.781 182.346C243.777 182.338 243.772 182.33 243.768 182.323C243.753 182.296 243.738 182.27 243.723 182.243C243.436 181.734 243.657 181.261 244.075 180.932C243.661 180.861 243.438 180.651 243.703 180.253ZM235.887 187.813H246.902C246.003 186.248 245.105 184.682 244.217 183.11C244.209 183.117 244.206 183.122 244.197 183.129C241.699 185.164 238.876 186.674 235.887 187.813ZM221.287 130.775C219.388 132.768 217.359 134.647 215.22 136.402C215.72 137.136 216.236 137.86 216.758 138.575C220.028 143.054 223.888 147.122 227.052 151.667C227.818 152.768 225.026 153.796 224.378 152.867C223.519 151.633 221.477 149.321 219.106 146.492C217.977 146.664 217.085 147.043 216.416 147.595C216.36 147.732 216.215 147.876 215.963 148.02C212.26 152.124 217.368 162.733 222.582 165.947C223.107 161.486 221.757 157.33 219.6 153.323C219.146 152.48 221.954 151.535 222.497 152.547C223.754 154.883 224.725 157.278 225.23 159.746C227.965 156.332 232.71 153.017 237.6 151.608C234.001 148.601 231.308 143.588 228.547 140.022C226.32 137.144 223.951 133.772 221.287 130.775ZM217.599 166.452C217.641 166.249 217.803 166.07 218.025 165.92C213.451 162.019 210.797 154.681 212.682 149.739C208.532 152.5 206.365 156.921 209.66 161.905C210.568 163.277 216.835 170.167 217.599 166.452ZM220.101 129.491C218.282 127.595 216.324 125.916 214.18 124.711C210.34 122.553 210.139 126.49 211.246 129.231C212.08 131.297 213.167 133.251 214.375 135.127C216.405 133.362 218.322 131.482 220.101 129.491ZM173.213 151.848V151.101H175.213V151.843C180.542 151.746 185.859 150.833 190.982 148.909C198.394 146.125 205.626 142.162 211.953 137.148C207.613 130.593 205.263 124.142 211.487 122.085C214.904 120.956 218.772 124.075 221.881 127.41C221.965 127.306 222.054 127.207 222.138 127.103C232.533 114.147 237.074 97.102 232.911 80.825C231.82 76.558 230.208 72.46 228.169 68.6H226.713V66.6H227.067C221.72 57.4 213.805 49.75 204.17 44.914C184.127 34.854 161.286 37.486 141.274 46.245C141.071 46.334 140.709 46.396 140.333 46.425C123.135 58.03 110.328 76.246 113.188 97.899C115.763 117.383 128.678 135.076 145.914 144.362C154.296 148.878 163.737 151.651 173.213 151.848ZM205.459 154.865C206.868 150.814 210.678 148.573 214.478 147.014C214.483 147.012 214.489 147.011 214.495 147.009C215.382 146.173 216.534 145.527 217.979 145.135C216.235 143.018 214.394 140.685 212.756 138.329C210.708 139.862 208.584 141.299 206.38 142.608C196.565 148.435 185.924 151.983 175.214 152.684V163.314L200.407 162.66C200.285 159.73 201.706 156.925 205.459 154.865ZM208.072 170.636C208.833 170.194 210.223 169.949 210.496 170.547C210.936 171.51 211.402 172.462 211.881 173.407C212.247 173.615 212.61 173.8 212.967 173.969C213.305 172.634 212.844 171.501 212.265 169.99C211.977 169.24 212.794 168.655 213.643 168.54C211.278 167.526 208.984 165.732 207.974 164.435C206.537 162.59 205.265 160.241 205.075 157.835C201.034 161.476 203.909 166.879 208.072 170.636ZM214.352 177.956C224.595 177.956 234.837 177.956 245.081 177.956C248.24 172.155 251.035 163.186 248.938 157.505C246.659 151.333 238.64 152.161 233.975 154.82C231.887 156.01 229.702 157.424 228.203 159.356C225.363 163.015 236.92 159.148 236.824 159.198C237.737 158.719 240.335 159.096 238.607 160.003C234.438 162.189 230.096 162.891 225.54 161.855C225.706 163.67 225.606 165.525 225.166 167.425C224.969 168.274 223.534 168.55 222.833 168.404C221.877 168.205 220.954 167.848 220.077 167.362C219.127 169.364 217.173 169.625 215.077 169.047C215.109 169.099 215.142 169.151 215.165 169.211C216.164 171.818 216.664 173.285 215.107 175.784C214.773 176.32 214.226 176.629 213.631 176.675C213.869 177.104 214.106 177.532 214.352 177.956ZM226.335 207.584C225.947 206.21 225.544 204.842 225.122 203.481C224.579 201.732 223.997 199.999 223.381 198.276H223.231H202.385V196.276H222.493H222.65C222.106 194.837 221.541 193.405 220.931 191.989C220.753 191.576 220.975 191.209 221.361 190.952C221.185 190.971 221.008 190.991 220.833 191.009C220.72 191.02 220.619 191.025 220.524 191.025C219.756 191.032 219.604 190.71 219.798 190.361C219.451 190.376 219.158 190.312 219.026 190.133C218.947 190.027 218.871 189.918 218.792 189.812H202.385V187.812H217.339C215.404 185.097 213.567 182.305 211.868 179.433C206.512 179.433 201.155 179.433 195.798 179.433C195.798 188.826 195.798 198.218 195.798 207.611C195.898 207.593 196.003 207.583 196.113 207.583C206.188 207.584 216.262 207.584 226.335 207.584ZM279.889 285.447C279.381 285.544 278.868 285.627 278.353 285.703C278.177 286.174 277.651 286.617 276.913 286.642C266.885 286.989 259.043 283.233 252.885 277.276H211.386V275.276H250.941C249.149 273.296 247.517 271.12 246.023 268.813H211.386V266.813H244.778C242.117 262.337 239.94 257.44 238.152 252.49C238.114 252.385 238.081 252.279 238.044 252.174C225.827 252.174 213.609 252.174 201.392 252.174C201.344 252.174 201.309 252.169 201.266 252.168C201.266 265.119 201.266 278.069 201.266 291.02C201.495 290.889 201.774 290.806 202.098 290.806C227.652 290.806 253.205 290.806 278.759 290.806C279.352 290.806 279.715 291.007 279.89 291.285C279.889 289.339 279.889 287.393 279.889 285.447ZM254.924 201.45C252.484 197.401 250.076 193.332 247.713 189.235V189.814H228.905C227.057 190.199 225.193 190.493 223.34 190.726C223.555 190.828 223.73 190.986 223.828 191.214C224.546 192.882 225.2 194.574 225.825 196.277H247.713V198.277H226.548C227.607 201.339 228.541 204.447 229.397 207.585C237.744 207.585 246.091 207.585 254.439 207.585C254.625 207.585 254.782 207.61 254.924 207.645C254.924 205.58 254.924 203.515 254.924 201.45ZM333.427 111.607C332.593 111.46 332.218 111.219 332.218 111.219L332.123 112.378C332.128 112.372 332.133 112.365 332.139 112.358C332.185 112.307 332.237 112.259 332.293 112.213C332.574 111.967 333.012 111.729 333.427 111.607ZM339.514 110.885C341.949 110.235 344.259 109.163 346.53 107.935C345.575 108.36 344.632 108.789 343.718 109.22C342.129 109.967 340.734 110.504 339.514 110.885ZM367.324 196.92C366.938 195.617 366.574 194.309 366.264 192.988C366.216 192.783 366.267 192.593 366.378 192.422C365.514 189.199 364.639 185.973 363.664 182.779C358.284 184.032 356.795 192.223 356.513 198.254C357.482 196.672 358.636 195.273 360.516 194.493C363.225 193.373 365.364 195.175 367.324 196.92ZM389.128 175.29C389.176 175.267 389.225 175.251 389.273 175.233C387.97 173.964 386.74 172.576 385.61 171.023C378.566 161.344 373.584 149.542 369.615 138.318C365.427 126.479 362.777 114.359 362.601 101.776C362.036 101.849 361.477 101.943 360.931 102.071C359.59 102.577 357.747 103.284 355.651 104.117C352.165 105.92 348.9 108.327 345.411 110.007C341.943 111.677 338.486 112.83 334.715 113.002C331.986 125.116 329.133 138.724 332.18 150.997C333.878 157.837 337.668 163.789 343.669 167.695C347.666 170.297 350.992 170.593 355.735 170.605C357.84 170.61 361.097 170.628 362.717 172.335C364.411 174.121 365.079 177.315 365.795 179.572C365.972 180.131 366.14 180.693 366.313 181.253C366.886 181.292 366.817 181.55 366.492 181.833C367.588 185.435 368.594 189.064 369.561 192.703C370.342 195.643 371.102 198.589 371.855 201.536C372.401 203.326 372.922 205.12 373.358 206.933C375.786 194.98 377.943 180.633 389.128 175.29ZM403.034 183.871C398.497 181.991 394.259 179.661 390.572 176.431C390.49 176.481 390.402 176.531 390.299 176.58C385.973 178.647 383.309 182.858 381.482 187.384C381.828 187.434 382.097 187.587 382.163 187.88C383.379 193.279 388.295 198.57 392.59 202.408C396.433 196.433 398.601 189.518 403.026 183.881C403.027 183.877 403.032 183.874 403.034 183.871ZM384.265 343.99C384.265 343.862 384.265 343.734 384.265 343.606C377.566 341.841 371.39 336.859 366.957 331.721C363.031 327.171 358.598 320.951 360.226 314.605C360.253 310.908 360.639 307.31 363.018 304.185C363.395 303.689 364.577 303.447 365.305 303.562C366.015 301.342 367.363 299.43 369.78 298.232C370.468 297.892 371.221 298.027 371.572 298.358C372.03 296.115 373.391 294.501 376.427 294.639C375.924 292.66 375.888 290.221 375.596 288.482C374.647 282.827 373.711 277.169 372.768 271.514C371.811 265.771 370.857 260.029 369.865 254.292C369.557 252.511 369.327 247.89 368.552 246.375C368.359 246.237 368.239 246.032 368.254 245.739C368.26 245.616 368.304 245.507 368.358 245.394C368.478 245.141 368.743 244.927 369.059 244.769C369.006 244.255 369.655 243.488 370.544 243.335C382.913 241.212 395.057 238.022 407.279 235.222C405.741 219.386 410.092 204.526 417.614 190.509C417.774 190.21 418.29 189.997 418.843 189.877C419.699 189.69 420.642 189.728 420.481 190.028C412.995 203.979 408.635 218.777 410.191 234.566C416.706 233.113 423.252 231.809 429.872 230.864C428.927 228.116 427.952 225.379 426.933 222.658C426.474 221.434 429.355 220.613 429.83 221.882C432.533 229.093 434.966 236.407 437.13 243.799C437.47 244.963 437.807 246.128 438.133 247.297C443.05 264.878 446.378 282.897 447.82 301.107C452.474 300.546 457.156 300.159 461.877 300.005C463.864 299.94 463.1 301.819 461.551 301.869C436.072 302.696 411.732 310.278 387.163 316.326C387.163 325.021 387.163 333.716 387.163 342.41C387.163 342.678 387.163 342.947 387.163 343.215C387.162 344.051 384.265 344.471 384.265 343.99ZM378.375 287.004C378.705 288.966 378.918 293.091 379.57 294.77C379.717 294.87 379.816 295.013 379.829 295.213C379.837 295.331 379.854 295.45 379.843 295.568C379.84 295.599 379.817 295.628 379.81 295.658C385.072 298.879 385.842 308.932 386.889 314.557C406.139 309.813 425.264 304.168 444.888 301.491C442.995 278.031 437.986 254.886 430.468 232.596C423.713 233.524 417.037 234.842 410.393 236.315C410.431 236.614 410.455 236.911 410.497 237.211C410.612 238.028 407.692 238.649 407.6 237.987C407.552 237.646 407.524 237.307 407.482 236.967C395.39 239.726 383.377 242.881 371.154 245.032C372.366 246.794 372.304 250.862 372.641 252.809C373.62 258.47 374.567 264.137 375.511 269.805C376.465 275.539 377.414 281.273 378.375 287.004ZM384.265 341.395C384.265 333.149 384.265 324.903 384.265 316.657C382.965 311.129 383.081 301.809 378.269 297.908C377.456 297.25 375.218 295.138 374.761 296.449C374.344 297.646 374.239 298.907 374.322 300.17C374.495 302.805 375.029 305.366 375.829 307.88C376.031 308.513 373.152 309.35 372.932 308.656C372.22 306.419 371.147 302.486 371.428 299.352C371.311 299.449 371.169 299.545 370.982 299.638C366.641 301.788 367.368 308.619 367.83 312.547C367.974 313.768 365.064 314.447 364.933 313.323C364.651 310.924 364.453 308.281 364.794 305.83C363.469 308.279 363.17 310.977 363.131 313.739C363.189 313.835 363.207 313.953 363.167 314.1C363.15 314.16 363.143 314.222 363.127 314.282C363.123 315.555 363.162 316.839 363.171 318.115C363.172 318.329 363.058 318.521 362.877 318.684C364.069 328.25 375.666 338.207 384.265 341.395ZM438.572 88.518C438.434 87.718 439.62 87.342 440.2 87.26C442.587 86.921 444.833 87.754 445.961 85.171C447.051 82.674 445.247 82.461 443.61 80.805C442.07 79.247 442.756 78.531 444.157 76.858C445.432 75.336 447.247 72.554 449.457 72.305C450.703 72.165 452.017 73.369 452.824 74.185C453.396 74.763 453.947 75.352 454.459 75.98C454.814 75.847 455.401 75.689 456.207 75.508C455.441 70.173 459.961 67.604 465.224 68.743C468.298 69.409 469.82 71.923 469.621 75.102C469.553 76.19 471.61 76.778 472.911 77.011C473.441 77.106 474.736 74.266 475.194 73.899C479.161 70.715 484.773 74.554 486.534 78.696C487.129 80.096 487.014 80.785 486.345 82.101C486.078 82.625 485.462 82.893 485.08 83.299C484.526 84.359 484.276 85.473 484.33 86.641C483.749 89.077 487.704 87.957 489.211 88.764C493.039 90.81 489.871 98.127 485.877 98.096C483.555 98.077 480.322 99.569 483.037 101.075C483.992 101.605 484.883 102.101 485.543 102.985C486.601 104.401 483.076 106.847 482.385 107.55C481.382 108.571 479.552 111.02 477.728 110.051C476.707 109.509 475.964 108.665 475.145 107.864C473.671 106.426 471.222 108.091 472.515 110.079C475.101 114.057 462.026 114.137 460.886 114.382C460.335 114.501 459.183 114.602 459.219 113.75C459.534 112.145 458.978 110.766 457.55 109.613C456.49 109.511 455.446 109.326 454.419 109.058C454.179 109.475 453.861 110.057 453.412 110.296C452.024 111.035 450.883 111.132 449.307 110.941C447.672 110.742 442.554 107.715 442.679 105.753C442.78 104.162 444.167 102.622 445.49 101.826C446.288 101.346 446.104 100.19 445.93 99.078C445.549 96.644 442.929 96.158 440.704 96.261C436.771 96.443 439.029 91.18 438.572 88.518ZM441.604 88.9C441.736 90.687 441.536 92.506 441.494 94.287C440.773 94.613 440.935 94.65 441.981 94.399C442.348 94.362 442.715 94.326 443.083 94.289C443.698 94.227 444.35 94.208 444.957 94.331C449.284 95.204 448.116 97.908 448.947 101.271C449.038 101.639 448.696 101.979 448.413 102.15C445 104.202 445.582 106.502 448.877 108.361C452.54 110.428 450.999 108.257 453.657 107.545C455.732 106.989 458.484 107.667 460.459 108.329C462.465 109.001 462.329 110.801 462.19 112.51C463.858 112.306 465.551 112.264 467.218 112.072C470.366 111.708 468.474 109.948 469.189 108.055C469.978 105.962 474.462 104.308 476.411 105.424C477.206 105.879 477.84 106.737 478.49 107.362C478.881 107.546 479.088 107.723 479.126 107.895C479.43 107.589 479.734 107.283 480.036 106.975C482.317 104.649 483.277 103.932 480.063 102.187C477.39 100.736 479.981 98.122 481.864 96.897C483.706 95.7 487.032 97.364 487.401 94.294C487.797 91.007 486.664 90.589 483.646 90.256C480.465 89.905 481.232 85.36 482.057 83.468C482.548 82.341 484.764 82.119 483.966 80.241C483.339 78.768 482.286 77.5 481.064 76.475C479.65 75.289 477.96 73.677 476.618 75.851C476.251 76.446 475.885 77.122 475.373 77.613C472.848 80.03 469.995 78.122 467.276 77.217C467.076 77.15 466.729 77.034 466.701 76.768C466.265 72.662 466.128 69.686 460.3 70.759C458.765 71.042 459.037 74.664 459.272 75.635C459.439 76.324 458.4 76.875 457.516 76.94C456.231 77.542 454.954 77.995 453.51 78.151C453.17 78.188 452.583 78.188 452.349 77.867C451.706 76.983 450.984 76.058 450.143 75.356C449.91 74.044 449.514 73.832 448.955 74.72C448.534 75.145 448.122 75.58 447.72 76.025C445.105 78.983 445.731 80.379 449.709 82.052C450.047 82.194 450.092 82.57 449.924 82.854C448.742 84.864 448.309 87.321 446.068 88.355C444.792 88.945 443.136 88.887 441.604 88.9ZM456.475 99.06C452.292 94.201 453.679 88.655 458.772 85.208C458.909 85.116 459.224 85.02 459.585 84.943C464.032 83.235 469.942 82.407 473.495 86.328C476.621 89.779 476.835 95.009 473.352 98.358C468.904 102.636 460.972 104.284 456.475 99.06ZM458.03 96.497C459.304 98.473 461.306 100.377 463.686 100.904C467.018 101.642 470.66 99.721 472.142 96.648C475.741 89.183 467.817 82.568 460.627 85.548C460.62 85.551 460.61 85.553 460.603 85.556C457.097 88.154 455.479 92.541 458.03 96.497ZM49.373 222.438C47.0511 222.419 43.8181 223.911 46.5331 225.417C47.4881 225.947 48.3791 226.443 49.039 227.327C50.097 228.743 46.5721 231.189 45.8811 231.892C44.8781 232.913 43.0481 235.362 41.2241 234.393C40.2031 233.851 39.4601 233.007 38.6411 232.206C37.1671 230.768 34.7181 232.433 36.0111 234.421C38.5971 238.399 25.5221 238.479 24.3821 238.724C23.8311 238.843 22.6791 238.944 22.7151 238.092C23.0301 236.487 22.4741 235.108 21.0461 233.955C19.9861 233.853 18.9421 233.668 17.9151 233.4C17.6751 233.817 17.3571 234.399 16.9081 234.638C15.5201 235.377 14.3791 235.474 12.8031 235.283C11.1681 235.084 6.05008 232.057 6.17508 230.095C6.27608 228.504 7.66308 226.964 8.98608 226.168C9.78408 225.688 9.60009 224.532 9.42609 223.42C9.04509 220.986 6.42508 220.5 4.20008 220.603C0.268085 220.784 2.52608 215.52 2.06908 212.859C1.93108 212.059 3.11709 211.683 3.69709 211.601C6.08409 211.262 8.33008 212.095 9.45808 209.512C10.5481 207.015 8.74409 206.802 7.10709 205.146C5.56709 203.588 6.25308 202.872 7.65408 201.199C8.92908 199.677 10.7441 196.895 12.9541 196.646C14.2001 196.506 15.5141 197.71 16.3211 198.526C16.8931 199.104 17.4441 199.693 17.9561 200.321C18.3111 200.188 18.8981 200.03 19.7041 199.849C18.9381 194.514 23.4581 191.945 28.7211 193.084C31.7951 193.75 33.3171 196.264 33.1181 199.443C33.0501 200.531 35.1071 201.119 36.4081 201.352C36.9381 201.447 38.2331 198.607 38.6911 198.24C42.6581 195.056 48.2701 198.895 50.031 203.037C50.627 204.437 50.511 205.126 49.842 206.442C49.575 206.966 48.9591 207.234 48.5771 207.64C48.0231 208.7 47.7731 209.814 47.8271 210.982C47.2461 213.418 51.201 212.298 52.707 213.105C56.534 215.153 53.367 222.47 49.373 222.438ZM47.1411 214.6C43.9601 214.249 44.7271 209.704 45.5521 207.812C46.0431 206.685 48.2591 206.463 47.4611 204.585C46.8341 203.112 45.7811 201.844 44.5591 200.819C43.1451 199.633 41.4551 198.021 40.1131 200.195C39.7461 200.79 39.3801 201.466 38.8681 201.957C36.3431 204.374 33.4901 202.466 30.7711 201.561C30.5711 201.494 30.2241 201.378 30.1961 201.112C29.7601 197.006 29.6231 194.03 23.7951 195.103C22.2601 195.386 22.5321 199.008 22.7671 199.979C22.9341 200.668 21.8951 201.219 21.0111 201.284C19.7261 201.886 18.4491 202.339 17.0051 202.495C16.6651 202.532 16.0781 202.532 15.8441 202.211C15.2011 201.327 14.4791 200.402 13.6381 199.7C13.4051 198.388 13.0091 198.176 12.4501 199.064C12.0291 199.489 11.6171 199.924 11.2151 200.369C8.60008 203.327 9.22609 204.723 13.2041 206.396C13.5421 206.538 13.5871 206.914 13.4191 207.198C12.2371 209.208 11.8041 211.665 9.56308 212.699C8.28708 213.288 6.63008 213.229 5.09808 213.243C5.23008 215.03 5.03008 216.849 4.98808 218.63C4.26708 218.956 4.42909 218.993 5.47509 218.742C5.84209 218.705 6.20908 218.669 6.57708 218.632C7.19208 218.57 7.84408 218.551 8.45108 218.674C12.7781 219.547 11.6101 222.251 12.4411 225.614C12.5321 225.982 12.1901 226.322 11.9071 226.493C8.49409 228.545 9.07609 230.845 12.3711 232.704C16.0341 234.771 14.4931 232.6 17.1511 231.888C19.2261 231.332 21.9781 232.01 23.9531 232.672C25.9591 233.344 25.8231 235.144 25.6841 236.853C27.3521 236.649 29.0451 236.607 30.7121 236.415C33.8601 236.051 31.9681 234.291 32.6831 232.398C33.4721 230.305 37.9561 228.651 39.9051 229.767C40.7001 230.222 41.3341 231.08 41.9841 231.705C42.3751 231.889 42.5821 232.066 42.6201 232.238C42.9241 231.932 43.2281 231.626 43.5301 231.318C45.8111 228.992 46.7711 228.275 43.5571 226.53C40.8841 225.079 43.4751 222.465 45.3581 221.24C47.2001 220.043 50.526 221.707 50.895 218.637C51.291 215.352 50.158 214.933 47.1411 214.6ZM36.9911 210.672C40.1171 214.123 40.3311 219.353 36.8481 222.702C32.4001 226.979 24.4671 228.627 19.9711 223.403C15.7881 218.544 17.1751 212.998 22.2681 209.551C22.4051 209.459 22.7201 209.363 23.0811 209.286C27.5271 207.58 33.4381 206.751 36.9911 210.672ZM24.1221 209.892C24.1151 209.895 24.1051 209.897 24.0981 209.9C20.5931 212.498 18.9741 216.885 21.5261 220.84C22.8001 222.816 24.8021 224.72 27.1821 225.247C30.5141 225.985 34.1561 224.064 35.6381 220.991C39.2361 213.526 31.3121 206.912 24.1221 209.892ZM158.827 178.254C158.827 188.23 158.827 198.205 158.827 208.181C158.827 209.019 157.115 209.526 156.324 209.33C156.064 209.585 155.682 209.766 155.203 209.766C135.762 209.766 116.32 209.766 96.879 209.766C96.202 209.766 95.827 209.505 95.687 209.165C94.871 209.43 93.907 209.412 93.907 208.957C93.907 198.981 93.907 189.006 93.907 179.03C93.907 178.029 96.547 177.517 96.782 178.16C97.069 178.037 97.359 177.955 97.585 177.955C117.026 177.955 136.468 177.955 155.909 177.955C156.369 177.955 156.596 178.039 156.669 178.165C157.528 177.741 158.827 177.687 158.827 178.254ZM155.444 207.584C155.63 207.584 155.787 207.609 155.929 207.644C155.929 198.108 155.929 188.573 155.929 179.037C155.534 179.262 155.069 179.434 154.738 179.434C135.427 179.434 116.115 179.434 96.804 179.434C96.804 188.827 96.804 198.219 96.804 207.612C96.904 207.594 97.009 207.584 97.119 207.584C116.562 207.584 136.003 207.584 155.444 207.584ZM143.396 251.753C143.396 264.93 143.396 278.107 143.396 291.285C143.22 291.007 142.858 290.806 142.265 290.806C116.711 290.806 91.158 290.806 65.604 290.806C65.28 290.806 65 290.889 64.772 291.02C64.772 278.069 64.772 265.119 64.772 252.168C64.815 252.169 64.85 252.174 64.898 252.174C90.451 252.174 116.005 252.174 141.559 252.174C142.534 252.174 144.681 250.695 142.73 250.695C117.177 250.695 91.623 250.695 66.069 250.695C65.708 250.695 65.187 250.898 64.772 251.153C64.772 251.094 64.772 251.034 64.772 250.975C64.772 250.188 61.875 250.704 61.875 251.751C61.875 265.214 61.875 278.677 61.875 292.141C61.875 292.684 63.258 292.606 64.113 292.16C64.161 292.604 64.542 292.986 65.363 292.986C90.917 292.986 116.47 292.986 142.024 292.986C142.71 292.986 143.198 292.621 143.408 292.19C143.528 292.961 146.294 292.43 146.294 291.364C146.294 277.901 146.294 264.438 146.294 250.974C146.293 250.13 143.396 250.664 143.396 251.753ZM143.396 307.25C143.396 313.428 143.396 319.606 143.396 325.784C143.22 325.506 142.858 325.305 142.265 325.305C116.711 325.305 91.158 325.305 65.604 325.305C65.28 325.305 65 325.388 64.772 325.519C64.772 319.555 64.772 313.592 64.772 307.629C64.815 307.63 64.85 307.635 64.898 307.635C90.451 307.635 116.005 307.635 141.559 307.635C142.534 307.635 144.681 306.156 142.73 306.156C127.558 306.156 112.386 306.156 97.214 306.156V293.521H95.214V306.156C85.499 306.156 75.784 306.156 66.069 306.156C65.708 306.156 65.187 306.359 64.772 306.614C64.772 306.567 64.772 306.52 64.772 306.472C64.772 305.685 61.875 306.201 61.875 307.248C61.875 313.736 61.875 320.225 61.875 326.713C61.875 327.259 63.27 327.177 64.124 326.726C64.203 327.141 64.584 327.485 65.364 327.485C90.918 327.485 116.471 327.485 142.025 327.485C142.698 327.485 143.182 327.132 143.398 326.712V326.713C143.398 327.56 146.295 327.026 146.295 325.937C146.295 319.449 146.295 312.96 146.295 306.472C146.293 305.627 143.396 306.161 143.396 307.25ZM278.389 307.25C278.389 313.428 278.389 319.606 278.389 325.784C278.213 325.506 277.851 325.305 277.258 325.305C251.704 325.305 226.151 325.305 200.597 325.305C200.273 325.305 199.993 325.388 199.765 325.519C199.765 319.555 199.765 313.592 199.765 307.629C199.808 307.63 199.843 307.635 199.891 307.635C225.444 307.635 250.998 307.635 276.552 307.635C277.527 307.635 279.674 306.156 277.723 306.156C270.387 306.156 263.05 306.156 255.714 306.156V293.521H253.714V306.156C236.164 306.156 218.613 306.156 201.063 306.156C200.702 306.156 200.181 306.359 199.766 306.614C199.766 306.567 199.766 306.52 199.766 306.472C199.766 305.685 196.869 306.201 196.869 307.248C196.869 313.736 196.869 320.225 196.869 326.713C196.869 327.259 198.264 327.177 199.118 326.726C199.197 327.141 199.578 327.485 200.358 327.485C225.912 327.485 251.465 327.485 277.019 327.485C277.692 327.485 278.176 327.132 278.392 326.712V326.713C278.392 327.56 281.289 327.026 281.289 325.937C281.289 319.449 281.289 312.96 281.289 306.472C281.287 305.627 278.389 306.161 278.389 307.25ZM116.214 210.521V250.177H118.214V210.521H116.214ZM200.713 82.351H146.385V84.351H200.713V82.351ZM200.713 95.351H146.385V97.351H200.713V95.351ZM200.713 108.351H146.385V110.351H200.713V108.351ZM103.386 189.813H148.714V187.813H103.386V189.813ZM103.386 198.276H148.714V196.276H103.386V198.276ZM131.713 266.813H78.385V268.813H131.713V266.813ZM78.386 277.276H131.714V275.276H78.386V277.276ZM19.3861 98.351H49.714V96.351H19.3861V98.351ZM19.3861 111.351H49.714V109.351H19.3861V111.351ZM19.3861 124.351H49.714V122.351H19.3861V124.351ZM97.713 11.351H64.713V13.351H97.713V11.351ZM97.713 24.351H64.713V26.351H97.713V24.351ZM97.713 37.351H64.713V39.351H97.713V37.351ZM307.713 46.351H274.713V48.351H307.713V46.351ZM307.713 59.351H274.713V61.351H307.713V59.351ZM307.713 72.351H274.713V74.351H307.713V72.351ZM217.214 210.521V250.177H219.214V210.521H217.214Z" fill="#0984E3"/>
</svg>
