<?xml version="1.0" encoding="UTF-8"?> <svg xmlns="http://www.w3.org/2000/svg" id="icon" viewBox="0 0 1000 1000"><path d="M719.1,353.91c9.19-35,11.51-70.94,6.69-104.77-5.35-37.54-19.48-72.72-40.87-101.75C643.4,91,577.73,60,500,60S356.59,91,315.08,147.39c-21.39,29-35.52,64.21-40.87,101.75-4.82,33.83-2.5,69.8,6.69,104.77C226.49,408.18,200,475.74,200,560c0,76.26,27.37,141.07,79.16,187.4,49.14,44,118.23,68.73,200.72,72.17V938.85h40V819.58c82.59-3.41,151.77-28.17,201-72.18C772.62,701.07,800,636.26,800,560,800,475.74,773.51,408.18,719.1,353.91ZM694.16,717.6c-41.85,37.45-101.82,58.69-174.28,61.94V608.4L634.14,494.14l-28.28-28.28-86,86V420h-40V631.6l-85.74-85.74-28.28,28.28,114,114v91.36c-72.35-3.29-132.23-24.52-174-61.93C262.77,679.06,240,624.56,240,560c0-71.19,23.11-139.91,86.29-193.85-14-41.83-17-79.47-12.48-111.37,4.42-31,16-59.94,33.47-83.67C381.07,125.26,435.3,100,500,100s118.93,25.26,152.72,71.11c17.48,23.73,29,52.66,33.47,83.67,4.54,31.9,1.48,69.54-12.48,111.37C736.89,420.09,760,488.81,760,560,760,624.56,737.23,679.06,694.16,717.6Z"></path></svg> 